# xmcd
#
# Track frame offsets:
#	150
#	14602
#	27650
#	40470
#	55929
#	68650
#	81184
#	95953
#	108860
#	121332
#	134624
#	146976
#	161608
#	173580
#	189931
#	203272
#	216746
#	228447
#	242345
#	255891
#
# Disc length: 3581 seconds
#
# Revision: 1
# Processed by: cddbd v1.5.2PL0 Copyright (c) Steve Scherf et al.
# Submitted via: audiograbber 1.83.01
#
DISCID=1c0dfb14
DTITLE=Carter Family - Essential CD Collection - 1
DYEAR=2016
DGENRE=Country
TTITLE0=Wildwood Flower
TTITLE1=Bury Me Under the Weeping Willow Tree
TTITLE2=Little Log Cabin By The Sea
TTITLE3=The Poor Orphan Child
TTITLE4=The Storms Are On The Ocean
TTITLE5=Single Girl, Married Girl
TTITLE6=Little Darling Pal Of Mine
TTITLE7=Keep On The Sunny Side
TTITLE8=Anchored In Love
TTITLE9=John Hardy Was A Desperate Little Man
TTITLE10=I Ain't Gonna Work Tomorrow
TTITLE11=Will You Miss Me When I'm Gone
TTITLE12=River Of Jordan
TTITLE13=Motherless Child
TTITLE14=The Western Hobo
TTITLE15=Carter's Blues
TTITLE16=Jimmy Brown The Newsboy
TTITLE17=Kitty's Waltz
TTITLE18=The Cannonball
TTITLE19=Little Log Hut In The Hill
EXTD=
EXTT0=
EXTT1=
EXTT2=
EXTT3=
EXTT4=
EXTT5=
EXTT6=
EXTT7=
EXTT8=
EXTT9=
EXTT10=
EXTT11=
EXTT12=
EXTT13=
EXTT14=
EXTT15=
EXTT16=
EXTT17=
EXTT18=
EXTT19=
PLAYORDER=
